<svg xmlns="http://www.w3.org/2000/svg" viewBox="0 0 174.23 57.91"><defs><style>.cls-1{font-size:34.73px;font-family:Nexa-Bold;font-weight:700;}.cls-1,.cls-3{fill:#0b3f59;}.cls-2{letter-spacing:-0.11em;}.cls-4{fill:#e2ac88;}.cls-5{fill:none;stroke:#fff;stroke-miterlimit:10;}</style></defs><title>Asset 9</title><g id="Layer_2" data-name="Layer 2"><g id="Layer_4" data-name="Layer 4"><text class="cls-1" transform="translate(72 42.49)"><tspan class="cls-2">T</tspan><tspan x="17.15" y="0">eetip</tspan></text><polygon class="cls-3" points="62.86 18.58 62.86 18.8 57.99 21.61 44.84 14.02 39.04 10.67 26.82 3.61 26.72 3.44 31.68 0.58 62.86 18.58"/><polygon class="cls-4" points="57.99 21.61 62.86 18.8 62.86 39.33 31.87 57.22 31.95 36.74 31.94 36.65 57.99 21.61"/><polygon class="cls-3" points="44.84 14.02 18.95 29.01 18.95 29.15 13.05 25.74 13.05 25.71 39.04 10.67 44.84 14.02"/><polygon class="cls-4" points="57.99 21.61 31.94 36.65 18.95 29.15 18.95 29.15 18.95 29.01 44.84 14.02 57.99 21.61"/><polygon class="cls-3" points="18.95 29.15 18.79 39.32 18.67 39.44 12.84 36.08 12.88 36 13.05 25.74 18.95 29.15 18.95 29.15"/><polygon class="cls-4" points="39.04 10.67 13.05 25.71 13.05 25.74 0.7 18.61 0.63 18.5 26.72 3.44 26.82 3.61 39.04 10.67"/><polygon class="cls-4" points="31.95 36.74 31.87 57.22 31.68 57.33 0.5 39.33 0.5 18.58 0.63 18.5 0.7 18.61 13.05 25.74 12.88 36 12.84 36.08 18.67 39.44 18.79 39.32 18.95 29.15 31.94 36.65 31.95 36.74"/><polygon class="cls-5" points="0.63 18.5 0.5 18.58 0.5 39.33 31.68 57.33 31.87 57.22 62.86 39.33 62.86 18.8 62.86 18.58 31.68 0.58 26.72 3.44 0.63 18.5"/><line class="cls-5" x1="18.95" y1="29.15" x2="31.94" y2="36.65"/><polyline class="cls-5" points="0.7 18.61 13.05 25.74 18.95 29.15"/><polyline class="cls-5" points="63.18 18.61 62.86 18.8 57.99 21.61 31.94 36.65"/><polyline class="cls-5" points="31.87 57.41 31.87 57.22 31.95 36.74"/><polyline class="cls-5" points="39.04 10.67 13.05 25.71 13.04 25.72"/><polyline class="cls-5" points="44.84 14.02 18.95 29.01 18.87 29.06"/><polyline class="cls-5" points="26.82 3.61 39.04 10.67 44.84 14.02 57.99 21.61 58.06 21.65"/><polyline class="cls-5" points="18.95 28.99 18.95 29.01 18.95 29.15 18.95 29.15 18.79 39.32"/><polyline class="cls-5" points="13.05 25.67 13.05 25.71 13.05 25.74 12.88 36"/><polyline class="cls-5" points="18.67 39.44 12.84 36.08 12.81 36.05"/></g></g></svg>